<svg xmlns="http://www.w3.org/2000/svg"><defs><symbol id="arrow-up" viewBox="0 0 24 24"><path d="m22.586 18.148-9.879-9.879a1.021 1.021 0 0 0-1.414 0L1.42 18.142.006 16.728l9.873-9.873a3.073 3.073 0 0 1 4.243 0L24 16.734Z" data-name="01 align center"/></symbol><symbol id="arrow-down" viewBox="0 0 24 24"><path d="M12 17.17a5 5 0 0 1-3.54-1.46L.29 7.54a1 1 0 0 1 1.42-1.42l8.17 8.17a3 3 0 0 0 4.24 0l8.17-8.17a1 1 0 1 1 1.42 1.42l-8.17 8.17A5 5 0 0 1 12 17.17Z"/></symbol><symbol id="film" viewBox="0 0 32 32"><path stroke-linejoin="round" stroke-linecap="round" stroke-width="2.667" d="M26.427 2.667H5.574a2.907 2.907 0 0 0-2.907 2.907v20.853a2.907 2.907 0 0 0 2.907 2.907h20.853a2.907 2.907 0 0 0 2.907-2.907V5.574a2.907 2.907 0 0 0-2.907-2.907zm-17.094 0v26.667M22.667 2.667v26.667M2.667 16h26.667M2.667 9.333h6.667M2.667 22.667h6.667m13.333 0h6.667M22.667 9.333h6.667"/></symbol><symbol id="search" viewBox="0 0 32 32"><path d="m31.008 27.231-7.58-6.447c-.784-.705-1.622-1.029-2.299-.998a11.954 11.954 0 0 0 2.87-7.787c0-6.627-5.373-12-12-12s-12 5.373-12 12 5.373 12 12 12c2.972 0 5.691-1.081 7.787-2.87-.031.677.293 1.515.998 2.299l6.447 7.58c1.104 1.226 2.907 1.33 4.007.23s.997-2.903-.23-4.007zM12 20a8 8 0 1 1 0-16 8 8 0 0 1 0 16z"/></symbol><symbol id="heart" viewBox="0 0 32 32"><path d="M23.6 2c-3.363 0-6.258 2.736-7.599 5.594C14.659 4.736 11.764 2 8.4 2 3.763 2 0 5.764 0 10.401c0 9.433 9.516 11.906 16.001 21.232C22.131 22.365 32 19.533 32 10.401 32 5.764 28.237 2 23.6 2z"/></symbol><symbol id="close" viewBox="0 0 32 32"><path d="M5.86 4.04 4.04 5.859 14.181 16l-10.2 10.22 1.798 1.799L16 17.82l10.2 10.199 1.82-1.82-10.2-10.2 10.14-10.14-1.82-1.82L16 14.18z"/></symbol><symbol id="arrow-right" viewBox="0 0 32 32"><path d="m19.414 27.414 10-10a2 2 0 0 0 0-2.828l-10-10a2 2 0 1 0-2.828 2.828L23.172 14H4a2 2 0 1 0 0 4h19.172l-6.586 6.586c-.39.39-.586.902-.586 1.414s.195 1.024.586 1.414a2 2 0 0 0 2.828 0z"/></symbol><symbol id="arrow-left" viewBox="0 0 32 32"><path d="m12.586 27.414-10-10a2 2 0 0 1 0-2.828l10-10a2 2 0 1 1 2.828 2.828L8.828 14H28a2 2 0 1 1 0 4H8.828l6.586 6.586c.39.39.586.902.586 1.414s-.195 1.024-.586 1.414a2 2 0 0 1-2.828 0z"/></symbol><symbol id="arrow" viewBox="0 0 32 32"><path d="m19.414 27.414 10-10a2 2 0 0 0 0-2.828l-10-10a2 2 0 1 0-2.828 2.828L23.172 14H4a2 2 0 1 0 0 4h19.172l-6.586 6.586c-.39.39-.586.902-.586 1.414s.195 1.024.586 1.414a2 2 0 0 0 2.828 0z"/></symbol><symbol id="icon-github" viewBox="0 0 32 32"><path d="M16 .395c-8.836 0-16 7.163-16 16 0 7.069 4.585 13.067 10.942 15.182.8.148 1.094-.347 1.094-.77 0-.381-.015-1.642-.022-2.979-4.452.968-5.391-1.888-5.391-1.888-.728-1.849-1.776-2.341-1.776-2.341-1.452-.993.11-.973.11-.973 1.606.113 2.452 1.649 2.452 1.649 1.427 2.446 3.743 1.739 4.656 1.33.143-1.034.558-1.74 1.016-2.14-3.554-.404-7.29-1.777-7.29-7.907 0-1.747.625-3.174 1.649-4.295-.166-.403-.714-2.03.155-4.234 0 0 1.344-.43 4.401 1.64a15.353 15.353 0 0 1 4.005-.539c1.359.006 2.729.184 4.008.539 3.054-2.07 4.395-1.64 4.395-1.64.871 2.204.323 3.831.157 4.234 1.026 1.12 1.647 2.548 1.647 4.295 0 6.145-3.743 7.498-7.306 7.895.574.497 1.085 1.47 1.085 2.963 0 2.141-.019 3.864-.019 4.391 0 .426.288.925 1.099.768C27.421 29.457 32 23.462 32 16.395c0-8.837-7.164-16-16-16z"/></symbol><symbol id="icon-lock" viewBox="0 0 32 32"><path d="M6.4 12.8V9.6C6.4 4.298 10.698 0 16 0s9.6 4.298 9.6 9.6v3.2h1.6a3.2 3.2 0 0 1 3.2 3.2v12.8a3.2 3.2 0 0 1-3.2 3.2H4.8a3.2 3.2 0 0 1-3.2-3.2V16c0-1.76 1.44-3.2 3.2-3.2h1.6zm8 10.768V27.2h3.2v-3.632a3.205 3.205 0 0 0 1.6-2.771 3.2 3.2 0 1 0-4.815 2.763l.015.008zM11.2 9.6v3.2h9.6V9.6a4.8 4.8 0 1 0-9.6 0z"/></symbol><symbol id="icon-close" viewBox="0 0 11 11"><path d="M11 1.108 9.892 0 5.5 4.392 1.108 0 0 1.108 4.392 5.5 0 9.892 1.108 11 5.5 6.608 9.892 11 11 9.892 6.608 5.5 11 1.108Z"/></symbol><symbol id="avatar" viewBox="0 0 128 128"><path d="M30 49c0 18.7 15.3 34 34 34s34-15.3 34-34-15.3-34-34-34-34 15.3-34 34zm60 0c0 14.3-11.7 26-26 26S38 63.3 38 49s11.7-26 26-26 26 11.7 26 26zM24.4 119.4C35 108.8 49 103 64 103s29 5.8 39.6 16.4l5.7-5.7C97.2 101.7 81.1 95 64 95s-33.2 6.7-45.3 18.7l5.7 5.7z"/></symbol><symbol id="day-night" viewBox="0 0 700 700"><defs><symbol id="a" overflow="visible"><path d="M29.312-1.75A20.895 20.895 0 0 1 24.578.016c-1.637.406-3.34.609-5.11.609-5.312 0-9.527-1.484-12.64-4.453-3.106-2.969-4.657-7-4.657-12.094s1.55-9.125 4.656-12.094c3.113-2.969 7.328-4.453 12.641-4.453 1.77 0 3.473.199 5.11.594 1.644.398 3.222.992 4.734 1.78v6.595c-1.531-1.04-3.04-1.801-4.516-2.282a14.826 14.826 0 0 0-4.671-.734c-2.938 0-5.247.945-6.922 2.828-1.68 1.875-2.516 4.465-2.516 7.766 0 3.293.836 5.882 2.516 7.765 1.675 1.875 3.984 2.813 6.922 2.813 1.632 0 3.19-.239 4.671-.719 1.477-.488 2.985-1.254 4.516-2.297z"/></symbol><symbol id="b" overflow="visible"><path d="M21.453-17.406c-.68-.313-1.352-.54-2.016-.688a8.556 8.556 0 0 0-1.984-.234c-1.969 0-3.484.633-4.547 1.89-1.055 1.262-1.578 3.071-1.578 5.423V0H3.672v-23.922h7.656V-20c.977-1.563 2.102-2.704 3.375-3.422 1.281-.72 2.813-1.078 4.594-1.078.25 0 .523.011.828.03.3.024.734.071 1.297.141z"/></symbol><symbol id="c" overflow="visible"><path d="M27.562-12.031v2.188H9.671c.188 1.792.832 3.136 1.938 4.03 1.113.9 2.671 1.344 4.671 1.344 1.602 0 3.25-.234 4.938-.703 1.687-.476 3.422-1.203 5.203-2.172v5.891A31.913 31.913 0 0 1 20.999.094a28.432 28.432 0 0 1-5.422.531c-4.336 0-7.703-1.097-10.109-3.297-2.398-2.207-3.594-5.297-3.594-9.265 0-3.906 1.176-6.973 3.532-9.203 2.363-2.239 5.609-3.36 9.734-3.36 3.758 0 6.77 1.137 9.031 3.406 2.258 2.262 3.39 5.282 3.39 9.063zm-7.86-2.531c0-1.457-.43-2.63-1.28-3.516-.844-.894-1.95-1.344-3.313-1.344-1.492 0-2.7.418-3.625 1.25-.918.836-1.492 2.04-1.719 3.61z"/></symbol><symbol id="d" overflow="visible"><path d="M14.391-10.766c-1.594 0-2.793.273-3.594.813-.804.542-1.203 1.34-1.203 2.39 0 .969.32 1.73.969 2.281.644.543 1.547.813 2.703.813 1.437 0 2.644-.516 3.625-1.547.988-1.031 1.484-2.32 1.484-3.875v-.875zm11.688-2.89V-.002h-7.703v-3.547c-1.031 1.45-2.188 2.508-3.469 3.172s-2.84 1-4.672 1c-2.48 0-4.496-.722-6.047-2.172-1.543-1.445-2.312-3.32-2.312-5.625 0-2.812.96-4.867 2.89-6.171 1.938-1.313 4.97-1.97 9.094-1.97h4.516v-.609c0-1.207-.48-2.093-1.438-2.656-.949-.562-2.437-.844-4.468-.844-1.637 0-3.157.168-4.563.5a15.698 15.698 0 0 0-3.937 1.47v-5.829a41.147 41.147 0 0 1 4.937-.906 39.87 39.87 0 0 1 4.953-.313c4.32 0 7.438.856 9.344 2.563 1.914 1.7 2.875 4.46 2.875 8.281z"/></symbol><symbol id="e" overflow="visible"><path d="M12.031-30.719v6.797h7.875v5.469h-7.875v10.14c0 1.118.219 1.872.656 2.266.438.387 1.313.578 2.625.578h3.938v5.47h-6.563C9.664 0 7.523-.63 6.265-1.89c-1.261-1.258-1.89-3.399-1.89-6.422v-10.141H.578v-5.47h3.797v-6.796z"/></symbol><symbol id="f" overflow="visible"><path d="M19.953-20.422v-12.812h7.688V0h-7.688v-3.453c-1.055 1.406-2.215 2.437-3.484 3.094-1.274.656-2.743.984-4.407.984-2.949 0-5.37-1.172-7.265-3.516C2.91-5.234 1.969-8.25 1.969-11.937s.941-6.704 2.828-9.047C6.69-23.328 9.113-24.5 12.062-24.5c1.657 0 3.118.336 4.391 1 1.281.656 2.445 1.684 3.5 3.078zM14.906-4.938c1.645 0 2.895-.598 3.75-1.797.863-1.195 1.297-2.93 1.297-5.203 0-2.281-.434-4.02-1.297-5.219-.855-1.195-2.105-1.797-3.75-1.797-1.625 0-2.871.602-3.734 1.797-.856 1.2-1.281 2.938-1.281 5.219 0 2.273.425 4.008 1.28 5.203.864 1.2 2.11 1.797 3.735 1.797z"/></symbol><symbol id="g" overflow="visible"><path d="M16.406-4.938c1.633 0 2.883-.597 3.75-1.796.863-1.196 1.297-2.93 1.297-5.204 0-2.28-.434-4.019-1.297-5.218-.867-1.196-2.117-1.797-3.75-1.797-1.637 0-2.89.605-3.766 1.812-.875 1.2-1.312 2.934-1.312 5.203 0 2.262.437 3.996 1.312 5.203.875 1.2 2.13 1.797 3.766 1.797zM11.328-20.42c1.05-1.395 2.219-2.422 3.5-3.079 1.281-.664 2.754-1 4.422-1 2.945 0 5.367 1.172 7.265 3.516 1.895 2.344 2.844 5.36 2.844 9.047s-.949 6.703-2.844 9.047C24.617-.546 22.195.625 19.25.625c-1.668 0-3.14-.336-4.422-1s-2.45-1.691-3.5-3.078V0H3.672v-33.234h7.656z"/></symbol><symbol id="h" overflow="visible"><path d="M.531-23.922h7.656L14.61-7.688l5.47-16.234h7.655L17.672 2.266c-1.011 2.664-2.195 4.523-3.547 5.578-1.343 1.063-3.12 1.594-5.328 1.594H4.375V4.422h2.391c1.3 0 2.242-.21 2.828-.625.594-.406 1.055-1.148 1.39-2.219l.204-.656z"/></symbol><symbol id="i" overflow="visible"><path d="M.219-31.891h29.39v6.219H19.033V0h-8.22v-25.672H.22z"/></symbol><symbol id="j" overflow="visible"><path d="M27.734-14.562V0h-7.703v-11.109c0-2.094-.047-3.531-.14-4.313-.087-.78-.243-1.359-.47-1.734a3.15 3.15 0 0 0-1.218-1.156c-.512-.281-1.094-.422-1.75-.422-1.594 0-2.852.617-3.766 1.844-.906 1.23-1.36 2.937-1.36 5.125V0H3.673v-33.234h7.656v12.812c1.144-1.395 2.363-2.422 3.656-3.078 1.3-.664 2.738-1 4.312-1 2.758 0 4.852.851 6.282 2.547 1.437 1.687 2.156 4.152 2.156 7.39z"/></symbol><symbol id="k" overflow="visible"><path d="M12.234-25.672v19.453h2.953c3.363 0 5.93-.832 7.703-2.5 1.77-1.664 2.656-4.086 2.656-7.266 0-3.156-.886-5.554-2.656-7.203-1.762-1.656-4.328-2.484-7.703-2.484zm-8.219-6.219h8.672c4.844 0 8.445.344 10.812 1.031 2.375.688 4.41 1.86 6.11 3.516a13.808 13.808 0 0 1 3.328 4.984c.726 1.875 1.093 4 1.093 6.375 0 2.407-.367 4.559-1.093 6.453a13.776 13.776 0 0 1-3.328 4.985c-1.711 1.648-3.762 2.82-6.157 3.515C21.054-.344 17.468 0 12.686 0H4.014z"/></symbol><symbol id="l" overflow="visible"><path d="M22.359-23.172v5.797c-1.637-.676-3.215-1.188-4.734-1.531-1.524-.344-2.961-.516-4.313-.516-1.46 0-2.543.184-3.25.547-.7.367-1.047.922-1.047 1.672 0 .617.266 1.09.797 1.422.531.324 1.488.562 2.875.719l1.344.187c3.914.5 6.55 1.324 7.906 2.469 1.352 1.137 2.031 2.922 2.031 5.36 0 2.554-.945 4.468-2.828 5.75C19.265-.017 16.46.624 12.734.624 11.148.625 9.515.5 7.828.25S4.406-.375 2.625-.875v-5.812a22.1 22.1 0 0 0 4.687 1.672c1.602.367 3.235.546 4.89.546 1.49 0 2.61-.203 3.36-.609.758-.414 1.14-1.031 1.14-1.844 0-.687-.26-1.195-.78-1.531-.524-.332-1.56-.594-3.11-.781l-1.344-.172c-3.406-.426-5.793-1.211-7.156-2.36-1.367-1.156-2.047-2.91-2.047-5.265 0-2.531.867-4.406 2.61-5.625 1.738-1.227 4.398-1.844 7.984-1.844 1.406 0 2.883.11 4.438.328 1.55.211 3.238.543 5.062 1z"/></symbol><symbol id="m" overflow="visible"><path d="M.656-23.922h7.656l5.954 16.531 5.937-16.531h7.672L18.453 0h-8.39z"/></symbol></defs><path d="M436.54 149.36c-39.199 0-71.137 31.938-71.137 71.227s31.852 71.227 71.137 71.227c39.289 0 71.227-31.938 71.227-71.227-.004-39.289-31.852-71.227-71.227-71.227zm-10.42-34.38h.086c2.887 2.102 6.477 3.414 10.324 3.414 3.937 0 7.523-1.312 10.414-3.414a17.276 17.276 0 0 0 7.176-14V44.714c0-9.625-7.875-17.5-17.586-17.5-9.54 0-17.5 7.79-17.5 17.5v56.262c0 5.777 2.797 10.766 7.086 14.004zm-86.53 33.42c3.414 3.414 7.875 5.074 12.336 5.074.875 0 1.75-.086 2.625-.176 3.586-.523 7.086-2.101 9.8-4.898 2.802-2.8 4.462-6.21 4.9-9.887.874-5.336-.876-10.852-4.9-14.875L324.63 83.826c-6.914-6.914-17.938-6.914-24.852 0-6.824 6.825-6.824 17.938 0 24.762zm-78.93 89.69h56.262c5.773 0 10.852-2.8 14-7.086v-.086c2.188-2.887 3.414-6.387 3.414-10.324s-1.226-7.437-3.414-10.324v-.086c-3.148-4.289-8.313-7.086-14-7.086H260.66c-9.625 0-17.5 7.79-17.5 17.5 0 9.707 7.875 17.492 17.5 17.492zm78.93 54.77-39.812 39.812c-6.824 6.824-6.824 17.938 0 24.762 3.414 3.414 7.875 5.074 12.336 5.074 4.55 0 9.012-1.664 12.426-5.074l39.727-39.812c4.113-4.023 5.773-9.54 4.898-14.875-.437-3.586-2.101-7.086-4.898-9.887-2.71-2.71-6.125-4.375-9.8-4.812-5.161-.875-10.763.699-14.876 4.812zm107.36 33.34c-2.887-2.102-6.477-3.414-10.414-3.414-3.852 0-7.438 1.312-10.324 3.414h-.086c-4.289 3.238-7.086 8.313-7.086 14v56.262c0 9.625 7.875 17.586 17.5 17.586s17.586-7.875 17.586-17.586V340.2c0-5.688-2.8-10.848-7.176-14zm86.62-33.34c-4.113-4.113-9.625-5.688-14.961-4.813-3.5.438-7 2.102-9.8 4.813-2.802 2.8-4.376 6.21-4.9 9.8-.874 5.337.876 10.853 4.9 14.962l39.726 39.812c3.414 3.414 7.875 5.074 12.426 5.074 4.461 0 8.926-1.664 12.336-5.074 6.824-6.824 6.824-17.852 0-24.762zm78.93-89.77h-56.262c-5.773 0-10.852 2.8-14 7.086v.086c-2.188 2.887-3.414 6.387-3.414 10.324s1.227 7.437 3.414 10.324v.086c3.148 4.289 8.313 7.086 14 7.086l56.262.007c9.625 0 17.5-7.789 17.5-17.5 0-9.71-7.79-17.5-17.5-17.5zM508.9 148.4c2.71 2.8 6.125 4.375 9.8 4.898.876.086 1.75.176 2.626.176 4.46 0 8.926-1.664 12.336-5.074l39.812-39.812c6.824-6.824 6.824-17.938 0-24.762-6.914-6.914-17.938-6.914-24.852 0l-39.727 39.812c-4.113 4.113-5.774 9.625-4.899 14.961.528 3.504 2.106 7.004 4.903 9.8z"/><path d="M177.1 223.21c0-38.324 8.488-75.426 24.762-109.29-78.402 33.953-131.86 112.44-131.86 200.46 0 120.4 98 218.4 218.49 218.4 54.164 0 106.31-20.477 146.12-56.262-1.398 0-2.8.086-4.113.086-139.74.004-253.4-113.66-253.4-253.4z"/></symbol></defs></svg>