<svg version="1.1" xmlns="http://www.w3.org/2000/svg" xmlns:xlink="http://www.w3.org/1999/xlink">
    <defs>
        <symbol id="arrow-up" viewBox="0 0 24 24">
<path d="m22.586 18.148-9.879-9.879a1.021 1.021 0 0 0-1.414 0L1.42 18.142.006 16.728l9.873-9.873a3.073 3.073 0 0 1 4.243 0L24 16.734Z" data-name="01 align center"/>
</symbol>
<symbol id="arrow-down" viewBox="0 0 24 24">
<path d="M12 17.17a5 5 0 0 1-3.54-1.46L.29 7.54a1 1 0 0 1 1.42-1.42l8.17 8.17a3 3 0 0 0 4.24 0l8.17-8.17a1 1 0 1 1 1.42 1.42l-8.17 8.17A5 5 0 0 1 12 17.17Z"/></symbol>
<symbol id="film" viewBox="0 0 32 32">
<path stroke-linejoin="round" stroke-linecap="round" stroke-miterlimit="4" stroke-width="2.6667" d="M26.427 2.667h-20.853c-1.605 0-2.907 1.301-2.907 2.907v0 20.853c0 1.605 1.301 2.907 2.907 2.907v0h20.853c1.605 0 2.907-1.301 2.907-2.907v0-20.853c0-1.605-1.301-2.907-2.907-2.907v0zM9.333 2.667v26.667M22.667 2.667v26.667M2.667 16h26.667M2.667 9.333h6.667M2.667 22.667h6.667M22.667 22.667h6.667M22.667 9.333h6.667"></path>
</symbol>
<symbol id="search" viewBox="0 0 32 32">
<path d="M31.008 27.231l-7.58-6.447c-0.784-0.705-1.622-1.029-2.299-0.998 1.789-2.096 2.87-4.815 2.87-7.787 0-6.627-5.373-12-12-12s-12 5.373-12 12 5.373 12 12 12c2.972 0 5.691-1.081 7.787-2.87-0.031 0.677 0.293 1.515 0.998 2.299l6.447 7.58c1.104 1.226 2.907 1.33 4.007 0.23s0.997-2.903-0.23-4.007zM12 20c-4.418 0-8-3.582-8-8s3.582-8 8-8 8 3.582 8 8-3.582 8-8 8z"></path>
</symbol>
<symbol id="heart" viewBox="0 0 32 32">
<path d="M23.6 2c-3.363 0-6.258 2.736-7.599 5.594-1.342-2.858-4.237-5.594-7.601-5.594-4.637 0-8.4 3.764-8.4 8.401 0 9.433 9.516 11.906 16.001 21.232 6.13-9.268 15.999-12.1 15.999-21.232 0-4.637-3.763-8.401-8.4-8.401z"></path>
</symbol>
<symbol id="close" viewBox="0 0 32 32">
<path d="M5.86 4.040l-1.82 1.819 10.141 10.141-10.2 10.22 1.798 1.799 10.221-10.199 10.2 10.199 1.82-1.82-10.2-10.2 10.14-10.14-1.82-1.82-10.14 10.141z"></path>
</symbol>
<symbol id="arrow-right" viewBox="0 0 32 32">
<path d="M19.414 27.414l10-10c0.781-0.781 0.781-2.047 0-2.828l-10-10c-0.781-0.781-2.047-0.781-2.828 0s-0.781 2.047 0 2.828l6.586 6.586h-19.172c-1.105 0-2 0.895-2 2s0.895 2 2 2h19.172l-6.586 6.586c-0.39 0.39-0.586 0.902-0.586 1.414s0.195 1.024 0.586 1.414c0.781 0.781 2.047 0.781 2.828 0z"></path>
</symbol>
<symbol id="arrow-left" viewBox="0 0 32 32">
<path d="M12.586 27.414l-10-10c-0.781-0.781-0.781-2.047 0-2.828l10-10c0.781-0.781 2.047-0.781 2.828 0s0.781 2.047 0 2.828l-6.586 6.586h19.172c1.105 0 2 0.895 2 2s-0.895 2-2 2h-19.172l6.586 6.586c0.39 0.39 0.586 0.902 0.586 1.414s-0.195 1.024-0.586 1.414c-0.781 0.781-2.047 0.781-2.828 0z"></path>
</symbol>
<symbol id="arrow" viewBox="0 0 32 32">
<path d="m19.414 27.414 10-10a2 2 0 0 0 0-2.828l-10-10a2 2 0 1 0-2.828 2.828L23.172 14H4a2 2 0 1 0 0 4h19.172l-6.586 6.586c-.39.39-.586.902-.586 1.414s.195 1.024.586 1.414a2 2 0 0 0 2.828 0z"/>
</symbol>
<symbol id="icon-github" viewBox="0 0 32 32">
<path d="M16 0.395c-8.836 0-16 7.163-16 16 0 7.069 4.585 13.067 10.942 15.182 0.8 0.148 1.094-0.347 1.094-0.77 0-0.381-0.015-1.642-0.022-2.979-4.452 0.968-5.391-1.888-5.391-1.888-0.728-1.849-1.776-2.341-1.776-2.341-1.452-0.993 0.11-0.973 0.11-0.973 1.606 0.113 2.452 1.649 2.452 1.649 1.427 2.446 3.743 1.739 4.656 1.33 0.143-1.034 0.558-1.74 1.016-2.14-3.554-0.404-7.29-1.777-7.29-7.907 0-1.747 0.625-3.174 1.649-4.295-0.166-0.403-0.714-2.030 0.155-4.234 0 0 1.344-0.43 4.401 1.64 1.276-0.355 2.645-0.532 4.005-0.539 1.359 0.006 2.729 0.184 4.008 0.539 3.054-2.070 4.395-1.64 4.395-1.64 0.871 2.204 0.323 3.831 0.157 4.234 1.026 1.12 1.647 2.548 1.647 4.295 0 6.145-3.743 7.498-7.306 7.895 0.574 0.497 1.085 1.47 1.085 2.963 0 2.141-0.019 3.864-0.019 4.391 0 0.426 0.288 0.925 1.099 0.768 6.354-2.118 10.933-8.113 10.933-15.18 0-8.837-7.164-16-16-16z"></path>
</symbol>
<symbol id="day-night" viewBox="0 0 700 700"><defs><symbol id="a" overflow="visible"><path d="M29.312-1.75c-1.5117.78125-3.0898 1.3711-4.7344 1.7656-1.6367.40625-3.3398.60938-5.1094.60938-5.3125 0-9.5273-1.4844-12.641-4.4531-3.1055-2.9688-4.6562-7-4.6562-12.094s1.5508-9.125 4.6562-12.094c3.1133-2.9688 7.3281-4.4531 12.641-4.4531 1.7695 0 3.4727.19922 5.1094.59375 1.6445.39844 3.2227.99219 4.7344 1.7812v6.5938c-1.5312-1.0391-3.0391-1.8008-4.5156-2.2812-1.4805-.48828-3.0391-.73438-4.6719-.73438-2.9375 0-5.2461.94531-6.9219 2.8281-1.6797 1.875-2.5156 4.4648-2.5156 7.7656 0 3.293.83594 5.8828 2.5156 7.7656 1.6758 1.875 3.9844 2.8125 6.9219 2.8125 1.6328 0 3.1914-.23828 4.6719-.71875 1.4766-.48828 2.9844-1.2539 4.5156-2.2969z"/></symbol><symbol id="b" overflow="visible"><path d="M21.453-17.406c-.67969-.3125-1.3516-.53906-2.0156-.6875-.65625-.15625-1.3203-.23438-1.9844-.23438-1.9688 0-3.4844.63281-4.5469 1.8906-1.0547 1.2617-1.5781 3.0703-1.5781 5.4219v11.016H3.6718v-23.922h7.6562v3.9219c.97656-1.5625 2.1016-2.7031 3.375-3.4219 1.2812-.71875 2.8125-1.0781 4.5938-1.0781.25 0 .52344.01172.82812.03125.30078.02344.73438.07031 1.2969.14062z"/></symbol><symbol id="c" overflow="visible"><path d="M27.562-12.031v2.1875H9.671c.1875 1.793.83203 3.1367 1.9375 4.0312 1.1133.89844 2.6719 1.3438 4.6719 1.3438 1.6016 0 3.25-.23438 4.9375-.70312 1.6875-.47656 3.4219-1.2031 5.2031-2.1719v5.8906c-1.8047.6875-3.6094 1.2031-5.4219 1.5469-1.8125.35156-3.6211.53125-5.4219.53125-4.3359 0-7.7031-1.0977-10.109-3.2969-2.3984-2.207-3.5938-5.2969-3.5938-9.2656 0-3.9062 1.1758-6.9727 3.5312-9.2031 2.3633-2.2383 5.6094-3.3594 9.7344-3.3594 3.7578 0 6.7695 1.1367 9.0312 3.4062 2.2578 2.2617 3.3906 5.2812 3.3906 9.0625zm-7.8594-2.5312c0-1.457-.42969-2.6289-1.2812-3.5156-.84375-.89453-1.9492-1.3438-3.3125-1.3438-1.4922 0-2.6992.41797-3.625 1.25-.91797.83594-1.4922 2.0391-1.7188 3.6094z"/></symbol><symbol id="d" overflow="visible"><path d="M14.391-10.766c-1.5938 0-2.793.27344-3.5938.8125-.80469.54297-1.2031 1.3398-1.2031 2.3906 0 .96875.32031 1.7305.96875 2.2812.64453.54297 1.5469.8125 2.7031.8125 1.4375 0 2.6445-.51562 3.625-1.5469.98828-1.0312 1.4844-2.3203 1.4844-3.875v-.875zm11.688-2.8906v13.656h-7.7031v-3.5469c-1.0312 1.4492-2.1875 2.5078-3.4688 3.1719s-2.8398 1-4.6719 1c-2.4805 0-4.4961-.72266-6.0469-2.1719-1.543-1.4453-2.3125-3.3203-2.3125-5.625 0-2.8125.96094-4.8672 2.8906-6.1719 1.9375-1.3125 4.9688-1.9688 9.0938-1.9688h4.5156v-.60938c0-1.207-.48047-2.0938-1.4375-2.6562-.94922-.5625-2.4375-.84375-4.4688-.84375-1.6367 0-3.1562.16797-4.5625.5-1.4062.32422-2.7188.8125-3.9375 1.4688v-5.8281c1.6445-.40625 3.2891-.70703 4.9375-.90625 1.6562-.20703 3.3047-.3125 4.9531-.3125 4.3203 0 7.4375.85547 9.3438 2.5625 1.9141 1.6992 2.875 4.4609 2.875 8.2812z"/></symbol><symbol id="e" overflow="visible"><path d="M12.031-30.719v6.7969h7.875v5.4688h-7.875v10.141c0 1.1172.21875 1.8711.65625 2.2656.4375.38672 1.3125.57812 2.625.57812h3.9375v5.4688h-6.5625c-3.0234 0-5.1641-.62891-6.4219-1.8906-1.2617-1.2578-1.8906-3.3984-1.8906-6.4219v-10.141H.57785v-5.4688h3.7969v-6.7969z"/></symbol><symbol id="f" overflow="visible"><path d="M19.953-20.422v-12.812h7.6875V0H19.953v-3.4531c-1.0547 1.4062-2.2148 2.4375-3.4844 3.0938-1.2734.65625-2.7422.98438-4.4062.98438-2.9492 0-5.3711-1.1719-7.2656-3.5156-1.8867-2.3438-2.8281-5.3594-2.8281-9.0469s.94141-6.7031 2.8281-9.0469c1.8945-2.3438 4.3164-3.5156 7.2656-3.5156 1.6562 0 3.1172.33594 4.3906 1 1.2812.65625 2.4453 1.6836 3.5 3.0781zM14.9061-4.938c1.6445 0 2.8945-.59766 3.75-1.7969.86328-1.1953 1.2969-2.9297 1.2969-5.2031 0-2.2812-.43359-4.0195-1.2969-5.2188-.85547-1.1953-2.1055-1.7969-3.75-1.7969-1.625 0-2.8711.60156-3.7344 1.7969-.85547 1.1992-1.2812 2.9375-1.2812 5.2188 0 2.2734.42578 4.0078 1.2812 5.2031.86328 1.1992 2.1094 1.7969 3.7344 1.7969z"/></symbol><symbol id="g" overflow="visible"><path d="M16.406-4.9375c1.6328 0 2.8828-.59766 3.75-1.7969.86328-1.1953 1.2969-2.9297 1.2969-5.2031 0-2.2812-.43359-4.0195-1.2969-5.2188-.86719-1.1953-2.1172-1.7969-3.75-1.7969-1.6367 0-2.8906.60547-3.7656 1.8125-.875 1.1992-1.3125 2.9336-1.3125 5.2031 0 2.2617.4375 3.9961 1.3125 5.2031.875 1.1992 2.1289 1.7969 3.7656 1.7969zm-5.0781-15.484c1.0508-1.3945 2.2188-2.4219 3.5-3.0781 1.2812-.66406 2.7539-1 4.4219-1 2.9453 0 5.3672 1.1719 7.2656 3.5156 1.8945 2.3438 2.8438 5.3594 2.8438 9.0469s-.94922 6.7031-2.8438 9.0469C24.617-.5464 22.1951.6254 19.2498.6254c-1.668 0-3.1406-.33594-4.4219-1s-2.4492-1.6914-3.5-3.0781V.0004H3.6717v-33.234h7.6562z"/></symbol><symbol id="h" overflow="visible"><path d="M.53125-23.922h7.6562l6.4219 16.234 5.4688-16.234h7.6562l-10.062 26.188c-1.0117 2.6641-2.1953 4.5234-3.5469 5.5781-1.3438 1.0625-3.1211 1.5938-5.3281 1.5938h-4.4219V4.4223h2.3906c1.3008 0 2.2422-.21094 2.8281-.625.59375-.40625 1.0547-1.1484 1.3906-2.2188l.20312-.65625z"/></symbol><symbol id="i" overflow="visible"><path d="M.21875-31.891h29.391v6.2188h-10.578v25.672h-8.2188v-25.672H.21895z"/></symbol><symbol id="j" overflow="visible"><path d="M27.734-14.562V0h-7.7031v-11.109c0-2.0938-.04687-3.5312-.14062-4.3125-.08594-.78125-.24219-1.3594-.46875-1.7344-.30469-.5-.71094-.88281-1.2188-1.1562-.51172-.28125-1.0938-.42188-1.75-.42188-1.5938 0-2.8516.61719-3.7656 1.8438-.90625 1.2305-1.3594 2.9375-1.3594 5.125v11.766h-7.6562v-33.234h7.6562v12.812c1.1445-1.3945 2.3633-2.4219 3.6562-3.0781 1.3008-.66406 2.7383-1 4.3125-1 2.7578 0 4.8516.85156 6.2812 2.5469 1.4375 1.6875 2.1562 4.1523 2.1562 7.3906z"/></symbol><symbol id="k" overflow="visible"><path d="M12.234-25.672v19.453h2.9531c3.3633 0 5.9297-.83203 7.7031-2.5 1.7695-1.6641 2.6562-4.0859 2.6562-7.2656 0-3.1562-.88672-5.5547-2.6562-7.2031-1.7617-1.6562-4.3281-2.4844-7.7031-2.4844zm-8.2188-6.2188h8.6719c4.8438 0 8.4453.34375 10.812 1.0312 2.375.6875 4.4102 1.8594 6.1094 3.5156 1.4883 1.4375 2.5977 3.1016 3.3281 4.9844.72656 1.875 1.0938 4 1.0938 6.375 0 2.4062-.36719 4.5586-1.0938 6.4531-.73047 1.8867-1.8398 3.5469-3.3281 4.9844-1.7109 1.6484-3.7617 2.8203-6.1562 3.5156-2.3984.6875-5.9844 1.0312-10.766 1.0312H4.0144z"/></symbol><symbol id="l" overflow="visible"><path d="M22.359-23.172v5.7969c-1.6367-.67578-3.2148-1.1875-4.7344-1.5312-1.5234-.34375-2.9609-.51562-4.3125-.51562-1.4609 0-2.543.18359-3.25.54688-.69922.36719-1.0469.92188-1.0469 1.6719 0 .61719.26562 1.0898.79688 1.4219.53125.32422 1.4883.5625 2.875.71875l1.3438.1875c3.9141.5 6.5508 1.3242 7.9062 2.4688 1.3516 1.1367 2.0312 2.9219 2.0312 5.3594 0 2.5547-.94531 4.4688-2.8281 5.75-1.875 1.2812-4.6797 1.9219-8.4062 1.9219-1.5859 0-3.2188-.125-4.9062-.375s-3.4219-.625-5.2031-1.125v-5.8125c1.5195.74219 3.082 1.2969 4.6875 1.6719 1.6016.36719 3.2344.54688 4.8906.54688 1.4883 0 2.6094-.20312 3.3594-.60938.75781-.41406 1.1406-1.0312 1.1406-1.8438 0-.6875-.26172-1.1953-.78125-1.5312-.52344-.33203-1.5586-.59375-3.1094-.78125l-1.3438-.17188c-3.4062-.42578-5.793-1.2109-7.1562-2.3594-1.3672-1.1562-2.0469-2.9102-2.0469-5.2656 0-2.5312.86719-4.4062 2.6094-5.625 1.7383-1.2266 4.3984-1.8438 7.9844-1.8438 1.4062 0 2.8828.10938 4.4375.32812 1.5508.21094 3.2383.54297 5.0625 1z"/></symbol><symbol id="m" overflow="visible"><path d="M.65625-23.922h7.6562l5.9531 16.531 5.9375-16.531h7.6719L18.45305 0h-8.3906z"/></symbol></defs><path d="M436.54 149.36c-39.199 0-71.137 31.938-71.137 71.227s31.852 71.227 71.137 71.227c39.289 0 71.227-31.938 71.227-71.227-.0039-39.289-31.852-71.227-71.227-71.227zM426.12 114.98h.08594c2.8867 2.1016 6.4766 3.4141 10.324 3.4141 3.9375 0 7.5234-1.3125 10.414-3.4141 4.375-3.1484 7.1758-8.3125 7.1758-14V44.714c0-9.625-7.875-17.5-17.586-17.5-9.5391 0-17.5 7.7891-17.5 17.5v56.262c0 5.7773 2.7969 10.766 7.0859 14.004zM339.59 148.4c3.4141 3.4141 7.875 5.0742 12.336 5.0742.875 0 1.75-.08594 2.625-.17578 3.5859-.52344 7.0859-2.1016 9.8008-4.8984 2.8008-2.8008 4.4609-6.2109 4.8984-9.8867.875-5.3359-.875-10.852-4.8984-14.875l-39.723-39.812c-6.9141-6.9141-17.938-6.9141-24.852 0-6.8242 6.8242-6.8242 17.938 0 24.762zM260.66 238.09h56.262c5.7734 0 10.852-2.8008 14-7.0859v-.08594c2.1875-2.8867 3.4141-6.3867 3.4141-10.324s-1.2266-7.4375-3.4141-10.324v-.08594c-3.1484-4.2891-8.3125-7.0859-14-7.0859H260.66c-9.625 0-17.5 7.7891-17.5 17.5 0 9.707 7.875 17.492 17.5 17.492zM339.59 292.86l-39.812 39.812c-6.8242 6.8242-6.8242 17.938 0 24.762 3.4141 3.4141 7.875 5.0742 12.336 5.0742 4.5508 0 9.0117-1.6641 12.426-5.0742l39.727-39.812c4.1133-4.0234 5.7734-9.5391 4.8984-14.875-.4375-3.5859-2.1016-7.0859-4.8984-9.8867-2.7109-2.7109-6.125-4.375-9.8008-4.8125-5.1602-.875-10.762.69922-14.875 4.8125zM446.95 326.2c-2.8867-2.1016-6.4766-3.4141-10.414-3.4141-3.8516 0-7.4375 1.3125-10.324 3.4141h-.08594c-4.2891 3.2383-7.0859 8.3125-7.0859 14v56.262c0 9.625 7.875 17.586 17.5 17.586s17.586-7.875 17.586-17.586V340.2c0-5.6875-2.8008-10.848-7.1758-14zM533.57 292.86c-4.1133-4.1133-9.625-5.6875-14.961-4.8125-3.5.4375-7 2.1016-9.8008 4.8125-2.8008 2.8008-4.375 6.2109-4.8984 9.8008-.875 5.3359.875 10.852 4.8984 14.961l39.727 39.812c3.4141 3.4141 7.875 5.0742 12.426 5.0742 4.4609 0 8.9258-1.6641 12.336-5.0742 6.8242-6.8242 6.8242-17.852 0-24.762zM612.5 203.09h-56.262c-5.7734 0-10.852 2.8008-14 7.0859v.08594c-2.1875 2.8867-3.4141 6.3867-3.4141 10.324s1.2266 7.4375 3.4141 10.324v.08594c3.1484 4.2891 8.3125 7.0859 14 7.0859l56.262.0078c9.625 0 17.5-7.7891 17.5-17.5 0-9.7109-7.7891-17.5-17.5-17.5zM508.9 148.4c2.7109 2.8008 6.125 4.375 9.8008 4.8984.875.08594 1.75.17578 2.625.17578 4.4609 0 8.9258-1.6641 12.336-5.0742l39.812-39.812c6.8242-6.8242 6.8242-17.938 0-24.762-6.9141-6.9141-17.938-6.9141-24.852 0l-39.727 39.812c-4.1133 4.1133-5.7734 9.625-4.8984 14.961.52734 3.5039 2.1055 7.0039 4.9023 9.8008z"/><path d="M177.1 223.21c0-38.324 8.4883-75.426 24.762-109.29-78.402 33.953-131.86 112.44-131.86 200.46 0 120.4 98 218.4 218.49 218.4 54.164 0 106.31-20.477 146.12-56.262-1.3984 0-2.8008.08594-4.1133.08594-139.74.0039-253.4-113.66-253.4-253.4z"/>
<symbol id="icon-lock-open" viewBox="0 0 32 32"><path d="M6.4 12.8V9.6C6.4 4.298 10.698 0 16 0s9.6 4.298 9.6 9.6h-4.8v3.2h6.4a3.2 3.2 0 0 1 3.2 3.2v12.8a3.2 3.2 0 0 1-3.2 3.2H4.8a3.2 3.2 0 0 1-3.2-3.2V16c0-1.76 1.44-3.2 3.2-3.2h1.6zm8 10.768V27.2h3.2v-3.632a3.205 3.205 0 0 0 1.6-2.771 3.2 3.2 0 1 0-4.815 2.763l.015.008zM11.2 9.6v3.2h9.6V9.6a4.8 4.8 0 1 0-9.6 0z"/></symbol>
<symbol id="icon-lock" viewBox="0 0 32 32"><path d="M6.4 12.8V9.6C6.4 4.298 10.698 0 16 0s9.6 4.298 9.6 9.6v3.2h1.6a3.2 3.2 0 0 1 3.2 3.2v12.8a3.2 3.2 0 0 1-3.2 3.2H4.8a3.2 3.2 0 0 1-3.2-3.2V16c0-1.76 1.44-3.2 3.2-3.2h1.6zm8 10.768V27.2h3.2v-3.632a3.205 3.205 0 0 0 1.6-2.771 3.2 3.2 0 1 0-4.815 2.763l.015.008zM11.2 9.6v3.2h9.6V9.6a4.8 4.8 0 1 0-9.6 0z"/></symbol>
<symbol id="icon-close" viewBox="0 0 11 11"><path d="M11 1.108 9.892 0 5.5 4.392 1.108 0 0 1.108 4.392 5.5 0 9.892 1.108 11 5.5 6.608 9.892 11 11 9.892 6.608 5.5 11 1.108Z" /></symbol>
<symbol id="avatar" viewBox="0 0 128 128">
<path  d="M30,49c0,18.7,15.3,34,34,34s34-15.3,34-34S82.7,15,64,15S30,30.3,30,49z M90,49c0,14.3-11.7,26-26,26S38,63.3,38,49   s11.7-26,26-26S90,34.7,90,49z" />
<path d="M24.4,119.4C35,108.8,49,103,64,103s29,5.8,39.6,16.4l5.7-5.7C97.2,101.7,81.1,95,64,95s-33.2,6.7-45.3,18.7L24.4,119.4z" />
</symbol>
</defs>
</svg>

