<svg version="1.1" xmlns="http://www.w3.org/2000/svg" xmlns:xlink="http://www.w3.org/1999/xlink">
<defs>
<symbol id="arrow-up" viewBox="0 0 24 24">
<path d="m22.586 18.148-9.879-9.879a1.021 1.021 0 0 0-1.414 0L1.42 18.142.006 16.728l9.873-9.873a3.073 3.073 0 0 1 4.243 0L24 16.734Z" data-name="01 align center"/>
</symbol>
<symbol id="arrow-down" viewBox="0 0 24 24">
<path d="M12 17.17a5 5 0 0 1-3.54-1.46L.29 7.54a1 1 0 0 1 1.42-1.42l8.17 8.17a3 3 0 0 0 4.24 0l8.17-8.17a1 1 0 1 1 1.42 1.42l-8.17 8.17A5 5 0 0 1 12 17.17Z"/></symbol>
<symbol id="film" viewBox="0 0 32 32">
<path stroke-linejoin="round" stroke-linecap="round" stroke-miterlimit="4" stroke-width="2.6667" d="M26.427 2.667h-20.853c-1.605 0-2.907 1.301-2.907 2.907v0 20.853c0 1.605 1.301 2.907 2.907 2.907v0h20.853c1.605 0 2.907-1.301 2.907-2.907v0-20.853c0-1.605-1.301-2.907-2.907-2.907v0zM9.333 2.667v26.667M22.667 2.667v26.667M2.667 16h26.667M2.667 9.333h6.667M2.667 22.667h6.667M22.667 22.667h6.667M22.667 9.333h6.667"></path>
</symbol>
<symbol id="search" viewBox="0 0 32 32">
<path d="M31.008 27.231l-7.58-6.447c-0.784-0.705-1.622-1.029-2.299-0.998 1.789-2.096 2.87-4.815 2.87-7.787 0-6.627-5.373-12-12-12s-12 5.373-12 12 5.373 12 12 12c2.972 0 5.691-1.081 7.787-2.87-0.031 0.677 0.293 1.515 0.998 2.299l6.447 7.58c1.104 1.226 2.907 1.33 4.007 0.23s0.997-2.903-0.23-4.007zM12 20c-4.418 0-8-3.582-8-8s3.582-8 8-8 8 3.582 8 8-3.582 8-8 8z"></path>
</symbol>
<symbol id="heart" viewBox="0 0 32 32">
<path d="M23.6 2c-3.363 0-6.258 2.736-7.599 5.594-1.342-2.858-4.237-5.594-7.601-5.594-4.637 0-8.4 3.764-8.4 8.401 0 9.433 9.516 11.906 16.001 21.232 6.13-9.268 15.999-12.1 15.999-21.232 0-4.637-3.763-8.401-8.4-8.401z"></path>
</symbol>
<symbol id="close" viewBox="0 0 32 32">
<path d="M5.86 4.040l-1.82 1.819 10.141 10.141-10.2 10.22 1.798 1.799 10.221-10.199 10.2 10.199 1.82-1.82-10.2-10.2 10.14-10.14-1.82-1.82-10.14 10.141z"></path>
</symbol>
<symbol id="arrow-right" viewBox="0 0 32 32">
<path d="M19.414 27.414l10-10c0.781-0.781 0.781-2.047 0-2.828l-10-10c-0.781-0.781-2.047-0.781-2.828 0s-0.781 2.047 0 2.828l6.586 6.586h-19.172c-1.105 0-2 0.895-2 2s0.895 2 2 2h19.172l-6.586 6.586c-0.39 0.39-0.586 0.902-0.586 1.414s0.195 1.024 0.586 1.414c0.781 0.781 2.047 0.781 2.828 0z"></path>
</symbol>
<symbol id="arrow-left" viewBox="0 0 32 32">
<path d="M12.586 27.414l-10-10c-0.781-0.781-0.781-2.047 0-2.828l10-10c0.781-0.781 2.047-0.781 2.828 0s0.781 2.047 0 2.828l-6.586 6.586h19.172c1.105 0 2 0.895 2 2s-0.895 2-2 2h-19.172l6.586 6.586c0.39 0.39 0.586 0.902 0.586 1.414s-0.195 1.024-0.586 1.414c-0.781 0.781-2.047 0.781-2.828 0z"></path>
</symbol>
<symbol id="arrow" viewBox="0 0 32 32">
<path d="m19.414 27.414 10-10a2 2 0 0 0 0-2.828l-10-10a2 2 0 1 0-2.828 2.828L23.172 14H4a2 2 0 1 0 0 4h19.172l-6.586 6.586c-.39.39-.586.902-.586 1.414s.195 1.024.586 1.414a2 2 0 0 0 2.828 0z"/>
</symbol>
<symbol id="icon-github" viewBox="0 0 32 32">
<path d="M16 0.395c-8.836 0-16 7.163-16 16 0 7.069 4.585 13.067 10.942 15.182 0.8 0.148 1.094-0.347 1.094-0.77 0-0.381-0.015-1.642-0.022-2.979-4.452 0.968-5.391-1.888-5.391-1.888-0.728-1.849-1.776-2.341-1.776-2.341-1.452-0.993 0.11-0.973 0.11-0.973 1.606 0.113 2.452 1.649 2.452 1.649 1.427 2.446 3.743 1.739 4.656 1.33 0.143-1.034 0.558-1.74 1.016-2.14-3.554-0.404-7.29-1.777-7.29-7.907 0-1.747 0.625-3.174 1.649-4.295-0.166-0.403-0.714-2.030 0.155-4.234 0 0 1.344-0.43 4.401 1.64 1.276-0.355 2.645-0.532 4.005-0.539 1.359 0.006 2.729 0.184 4.008 0.539 3.054-2.070 4.395-1.64 4.395-1.64 0.871 2.204 0.323 3.831 0.157 4.234 1.026 1.12 1.647 2.548 1.647 4.295 0 6.145-3.743 7.498-7.306 7.895 0.574 0.497 1.085 1.47 1.085 2.963 0 2.141-0.019 3.864-0.019 4.391 0 0.426 0.288 0.925 1.099 0.768 6.354-2.118 10.933-8.113 10.933-15.18 0-8.837-7.164-16-16-16z"></path>
</symbol>
<symbol id="icon-lock" viewBox="0 0 32 32">
<path d="M14.5 22.4v2.84h3V22.4a2.965 2.965 0 0 0 1.7-2.638v-.002a3.102 3.102 0 0 0-3.098-3.002l-.107.002H16a3.099 3.099 0 0 0-3.2 2.995v.005a2.96 2.96 0 0 0 1.682 2.632l.018.008z"/>
<path d="M29.5 10H27C26.688 4.408 22.078-.009 16.435-.009c-.153 0-.305.003-.457.01L16 0a9.732 9.732 0 0 0-.435-.009c-5.642 0-10.253 4.417-10.563 9.981L5.001 10h-2.5a2.5 2.5 0 0 0-2.5 2.5v17a2.5 2.5 0 0 0 2.5 2.5h27a2.5 2.5 0 0 0 2.5-2.5v-17a2.5 2.5 0 0 0-2.5-2.5zM16 2.5a8.1 8.1 0 0 1 8.498 7.473L24.5 10h-17c.316-4.213 3.812-7.511 8.079-7.511.148 0 .296.004.442.012l-.02-.001zm13.5 27h-27v-17h27z"/>
</symbol>
<symbol id="icon-tick" viewBox="0 0 28 32">
<path d="M27.837.098c-.027.025-.352.27-.725.542-4.805 3.538-7.97 6.26-10.777 9.273-3.315 3.56-6.185 7.733-8.848 12.87l-.242.47-.125-.207c-.07-.115-.317-.535-.55-.933-.79-1.352-1.192-1.892-1.985-2.663-.42-.407-1.348-1.203-1.367-1.172-.002.005-.728 1.093-1.613 2.415C.15 22.873.002 23.1.055 23.111c.427.08.75.192 1.042.363.745.438 1.417 1.14 2.237 2.34.542.795.915 1.41 2.015 3.337 1.135 1.99 1.645 2.843 1.675 2.808.013-.01.162-.352.338-.758 3.465-8.03 6.72-14.148 10.093-18.962 2.55-3.643 5.265-6.827 9.777-11.47.385-.395.688-.718.675-.718s-.043.02-.07.048z"/></symbol>
</defs>
</svg>
